<svg width="58" height="46" viewBox="0 0 58 46" fill="none" xmlns="http://www.w3.org/2000/svg">
<path fill-rule="evenodd" clip-rule="evenodd" d="M14.6219 30.75C14.832 31.4553 15.1364 32.1328 15.5293 32.7635C17.0014 35.0664 19.7747 36.639 23.7766 37.4325L26.1035 37.8925V46H23.2057C15.141 46 8.98892 43.7834 4.92325 39.4105C-0.54496 33.5225 0.00562668 25.9613 0.0230141 25.875V2.875C0.0230141 2.1125 0.32832 1.38124 0.871769 0.842069C1.41522 0.302902 2.1523 0 2.92085 0H20.3079C23.5042 0 26.1035 2.57887 26.1035 5.75V25.875C26.1035 26.6375 25.7982 27.3688 25.2548 27.9079C24.7113 28.4471 23.9742 28.75 23.2057 28.75H14.2862C14.3155 29.4305 14.4289 30.1021 14.6219 30.75ZM24.1035 44H23.2057C15.4943 44 9.95702 41.8868 6.38874 38.0495C3.9729 35.4482 2.86844 32.4573 2.37484 30.0632C2.12881 28.87 2.03878 27.844 2.01089 27.1212C1.99697 26.7605 1.99864 26.4786 2.00359 26.2932C2.00522 26.2319 2.00719 26.1821 2.00899 26.1441L2.02301 26.0746V2.875C2.02301 2.64806 2.11373 2.4272 2.28038 2.26187C2.44756 2.096 2.67765 2 2.92085 2H20.3079C22.4146 2 24.1035 3.69833 24.1035 5.75V25.875C24.1035 26.1019 24.0128 26.3228 23.8462 26.4881C23.679 26.654 23.4489 26.75 23.2057 26.75H12.1982L12.288 28.8361C12.3641 30.6025 12.8961 32.319 13.8318 33.821L13.8379 33.8309L13.8442 33.8407C15.7273 36.7866 19.1118 38.5465 23.3876 39.3943L23.3887 39.3945L24.1035 39.5358V44ZM33.9195 26.0746V2.875C33.9195 2.64807 34.0102 2.4272 34.1768 2.26187C34.344 2.096 34.5741 2 34.8173 2H52.2043C54.311 2 56 3.69833 56 5.75V25.875C56 26.1019 55.9093 26.3228 55.7426 26.4881C55.5755 26.654 55.3454 26.75 55.1022 26.75H44.0946L44.1845 28.8361C44.2606 30.6025 44.7926 32.319 45.7282 33.821L45.7344 33.8309L45.7407 33.8407C47.6238 36.7866 51.0082 38.5465 55.2841 39.3943L55.2852 39.3945L56 39.5358V44H55.1022C47.3905 44 41.8531 41.8867 38.2849 38.0491M55.1022 46C47.0375 46 40.8854 43.7834 36.8197 39.4105C31.3486 33.5225 31.9021 25.9613 31.9195 25.875V2.875C31.9195 2.1125 32.2248 1.38124 32.7682 0.842069C33.3117 0.302902 34.0488 0 34.8173 0H52.2043C55.4006 0 58 2.57887 58 5.75V25.875C58 26.6375 57.6947 27.3688 57.1512 27.9079C56.6078 28.4471 55.8707 28.75 55.1022 28.75H46.1826C46.2119 29.4305 46.3254 30.1021 46.5184 30.75C46.7285 31.4553 47.0329 32.1328 47.4258 32.7635C48.8979 35.0664 51.6711 36.639 55.673 37.4325L58 37.8925V46H55.1022ZM33.9195 26.0746L33.9054 26.1445L33.9195 26.0746ZM33.9054 26.1445C33.9036 26.1825 33.9016 26.2324 33.8999 26.2938C33.8949 26.4792 33.8932 26.7611 33.907 27.1217C33.9347 27.8445 34.0244 28.8704 34.2703 30.0635C34.7635 32.4572 35.8681 35.448 38.2849 38.0491" fill="#F0F8F3"/>
</svg>
